<svg id="Layer_1" data-name="Layer 1" xmlns="http://www.w3.org/2000/svg" viewBox="0 0 512 512"><defs><style>.cls-1{fill:#fb675e;}.cls-2{fill:#092a5e;}</style></defs><g id="Artboard_17" data-name="Artboard 17"><path class="cls-1" d="M256.015,335.469a79.455,79.455,0,1,1,79.455-79.455A79.546,79.546,0,0,1,256.015,335.469Zm0-144.907a65.452,65.452,0,1,0,65.451,65.452A65.526,65.526,0,0,0,256.015,190.562Z"/><path class="cls-1" d="M250.085,285.665a6.973,6.973,0,0,1-4.072-1.31l-24.69-17.688a7,7,0,0,1,8.155-11.384l19.314,13.837,32.388-40.151a7,7,0,1,1,10.9,8.792l-36.539,45.3A6.991,6.991,0,0,1,250.085,285.665Z"/><path class="cls-2" d="M111.787,188.918c-26.937,0-52.362-7.01-71.591-19.737C20.081,155.867,9,137.88,9,118.533,9,95.041,25.471,73.621,53.326,60.518L51.051,16.365a7,7,0,0,1,11.112-6.021l51.926,37.794c26.084.388,50.611,7.357,69.291,19.724,20.114,13.318,31.192,31.313,31.192,50.671s-11.078,37.334-31.193,50.648C164.149,181.908,138.725,188.918,111.787,188.918ZM65.791,30.3l1.767,34.3a7,7,0,0,1-4.281,6.816c-25.216,10.593-40.27,28.208-40.27,47.119,0,14.495,8.849,28.335,24.918,38.971,16.963,11.227,39.642,17.411,63.862,17.411s46.9-6.184,63.862-17.411c16.07-10.636,24.919-24.476,24.919-38.971s-8.849-28.355-24.92-39c-16.96-11.229-39.639-17.414-63.861-17.414a7,7,0,0,1-4.12-1.341Z"/><path class="cls-2" d="M163.775,141.381h-8.731a7,7,0,1,1,0-14h8.731a7,7,0,1,1,0,14Zm-39.317,0H59.8a7,7,0,1,1,0-14h64.658a7,7,0,1,1,0,14Zm39.317-31.72H99.116a7,7,0,1,1,0-14h64.659a7,7,0,1,1,0,14Zm-95.244,0H59.8a7,7,0,1,1,0-14h8.731a7,7,0,1,1,0,14Z"/><path class="cls-2" d="M453.959,503a7,7,0,0,1-4.121-1.341l-51.927-37.8c-26.085-.386-50.606-7.351-69.275-19.709-20.107-13.31-31.18-31.3-31.18-50.658s11.073-37.348,31.18-50.657c19.217-12.721,44.636-19.727,71.577-19.727s52.381,7,71.6,19.726C491.923,356.145,503,374.135,503,393.494c0,23.5-16.459,44.911-44.3,57.992l2.25,44.153A7,7,0,0,1,453.959,503ZM400.213,337.113c-24.223,0-46.9,6.18-63.849,17.4-16.059,10.632-24.9,24.475-24.9,38.981s8.845,28.35,24.9,38.981c16.951,11.221,39.626,17.4,63.849,17.4a7,7,0,0,1,4.12,1.34L446.219,481.7,444.471,447.4a7,7,0,0,1,4.284-6.813c25.2-10.569,40.238-28.173,40.238-47.09,0-14.507-8.846-28.35-24.907-38.98C447.132,343.293,424.447,337.113,400.213,337.113Z"/><path class="cls-2" d="M452.2,416.37h-8.7a7,7,0,1,1,0-14h8.7a7,7,0,1,1,0,14Zm-39.288,0H348.254a7,7,0,1,1,0-14h64.658a7,7,0,1,1,0,14ZM452.2,384.622H387.542a7,7,0,1,1,0-14H452.2a7,7,0,1,1,0,14Zm-95.244,0h-8.7a7,7,0,1,1,0-14h8.7a7,7,0,1,1,0,14Z"/><path class="cls-2" d="M256.015,471.5A215.6,215.6,0,0,1,47.879,199.969,7,7,0,0,1,61.4,203.605a201.938,201.938,0,0,0-6.9,52.409c0,111.1,90.4,201.487,201.515,201.487a203.406,203.406,0,0,0,50.475-6.357,7,7,0,1,1,3.477,13.564A217.418,217.418,0,0,1,256.015,471.5Zm201.348-154.26a7.005,7.005,0,0,1-6.765-8.821,201.93,201.93,0,0,0,6.9-52.409C457.5,144.9,367.115,54.5,256.015,54.5a201.751,201.751,0,0,0-50.463,6.382,7,7,0,1,1-3.5-13.558A215.621,215.621,0,0,1,464.121,312.059,7.006,7.006,0,0,1,457.363,317.244Z"/><path class="cls-2" d="M457.359,317.243a7,7,0,0,1-6.6-4.658l-12.671-35.66a7,7,0,0,1,13.195-4.689l8.609,24.228,16.681-19.591a7,7,0,0,1,10.662,9.078L462.69,314.78A7,7,0,0,1,457.359,317.243Z"/><path class="cls-2" d="M67.34,244.45a7,7,0,0,1-6.6-4.654L52.109,215.55,35.421,235.129a7,7,0,1,1-10.656-9.084l24.547-28.8a7,7,0,0,1,11.924,2.193l12.7,35.66a7.006,7.006,0,0,1-6.6,9.352Z"/></g></svg>