<?xml version="1.0" encoding="UTF-8"?>
<svg id="Modo_de_aislamiento" xmlns="http://www.w3.org/2000/svg" version="1.1" viewBox="0 0 2000 2000">
  <!-- Generator: Adobe Illustrator 29.5.1, SVG Export Plug-In . SVG Version: 2.1.0 Build 141)  -->
  <defs>
    <style>
      .st0 {
        fill: #eb1e23;
      }

      .st0, .st1, .st2, .st3, .st4 {
        fill-rule: evenodd;
      }

      .st1 {
        fill: #010100;
      }

      .st2 {
        fill: #fcfcf8;
      }

      .st3 {
        fill: #060606;
      }

      .st4 {
        fill: #b1ae45;
      }
    </style>
  </defs>
  <path class="st4" d="M230.8,859.1c-.3-411.3,332.6-750,750.1-749.9,415,0,750.1,334.2,750.5,749.7.4,417.2-337.8,751.6-752.5,751-412.8-.6-747.9-336.5-748.1-750.9ZM706.7,609.8c-21.4,31.3-37,64.6-41.3,103-2.8,24.6,1.6,46,16.4,65.6,17.6,23.3,44.4,28.4,68.1,12.6,9.7-6.5,12.9-17.8,19.1-26.9-.6,5-1,10-1.9,14.9-6.3,35.1-13.5,69.8-32.4,101-8.6,14.1-16.1,29-22.1,44.4-18,45.8-21.9,92.9-8.5,140.7,12.4,44.3,31.2,85.2,66.6,116.3,24.7,21.6,53.3,36.3,84.4,45.9,22.9,7,45.2,13.8,50.9,41.6,4.2,23.5-4.8,39.3-25.3,51.9-18.1,11.2-37.4,19.9-55,31.9-26.8,18.2-49.7,38.6-56.7,72.5-3.3,15.7-2.8,17.9,12.8,17.9,120.3,0,240.7,0,361,0,2.5,0,5,0,7.6-.1,4.6-.3,6.6-3.1,5.8-7.3-5.1-25.1-13.9-47.9-34.7-65.1-24.9-20.6-54.2-34-81.1-51.2-19.1-12.2-32-26.4-28.3-50.7,4.5-5.9,5.8-13.7,12.5-18.4,11.9-8.5,24.8-15.5,38.8-18.4,24.9-5.1,48.6-13.5,71.4-24,61.7-28.3,90.8-82,107.5-143.6,13.1-48.4,9.6-98,3.3-147.1-4.2-32.7-6-64.8,1-97.6,6.7-31.4,35-61.3,75.2-55.7,28.5,4,58.6,20.2,64.6,56.9,5.3,32.4-3.6,61.2-21.2,88-2.1,3.1-7,5.6-4.9,10,2.3,4.9,7.9,4.7,12.5,4.6,25.1-.2,48.2-6.4,68.1-22.6,16.7-13.6,29-30.2,40.6-48.4,34.9-54.7,40.4-115.6,39.2-177.6-.8-41.8-16-80.9-29.2-120.2-19.7-58.9-63-93.1-118.9-113.8-30.7-11.4-62.4-19.3-95.6-20-26.7-.6-53.9-1.7-79,8.1-59.8,23.3-107.5,61.5-140.2,117.8-37.6,64.8-48.6,136.4-54.5,209.2-2.1,26.5-.3,53.3,1.9,79.9.5,6.3-.6,8.1-7.6,6.5-14.1-3.1-26.7-9.3-37.5-18.4-38.8-33-61.1-73.7-58.9-126.2,1.5-35.9,1.7-72,1.9-107.9,0-14.5-.2-28.8,8.5-41.4,8.7-8.4,13.7-18.8,16.2-30.6,2-9.6,5.7-18.6,12.9-25.6,7.3-7,16.3-9.4,25.9-5.6,8.9,3.5,12.7,11.1,13,20.5.4,10.8.4,21.5-2.3,32.2-2.3,9.1,3.4,15.5,12.6,14.7,4.3-.4,8-2.5,11.6-5.3,15.4-12,25.4-27.1,32.2-45.6,12.6-34.2,12-69.1,9.7-104.3-.5-8.1-3.5-16.1-5.9-24-8.7-27.9-27.9-49-47.2-69.7-9-9.6-16.8-20.7-28.8-27.2-17.5-9.3-36.4-16.8-55.6-18.6-34.5-3.3-69.3-5.2-104.2.9-34,5.9-65,17.1-90.4,40.8-23.4,21.8-37.4,48.7-44,80.3-6.1,29.3-5.6,57.9,2.8,86,11.6,38.8,36.8,65.5,75.7,78.4-31.3,6.9-62.2,14.9-90.2,32.1,33.5,3.7,66.9,17,100.6-3.2-2.4,10.7-9.6,14.4-17.8,16.3-13,3.1-26.3,3.3-39.6,1.6-11.2-1.5-22.5-2.3-33.7-3.4,12.6,11,26.9,16.4,41.7,20.8Z"/>
  <path class="st3" d="M1551.1,1672.1c-.7,38.6-53.7,68.6-93.2,39.7-26-19-40.9-45.2-43.6-77.5-3.4-41.4,40-72.2,70.4-59,.9.4,2,.2,3.1.3.2-.8.7-1.6.5-2q-7-13.8,6.2-22.5,18.2-11.9,30.2,6.3c21.9,33.4,43.7,66.9,65.6,100.3,5.3,8.1,10.1,16.6,13.7,25.7,6.7,17.1,5,33.4-5.8,48.1-16.9,22.8-39.4,37.8-67.1,44.1-15.2,3.4-29.3.2-41.1-10.8-4.3-4-4.3-6.4.9-9.5,8.6-5.2,17-10.9,25.4-16.5,2.9-2,5.4-2.5,8.9-.7,14.6,7.5,24.6-2.2,34.4-10.4,9.2-7.7,11.8-17.9,7.4-29.3-3.4-8.9-7.7-17.5-15.8-26.4ZM1454.9,1629.2c-.7,18.7,16.6,45.6,33.9,52.8,20.9,8.7,45.6-8.9,42.7-31.5-2.6-20.3-13.2-36.6-31-46.8-19.6-11.3-44.9,3.4-45.7,25.5Z"/>
  <path class="st3" d="M712.7,1817.3c-5.5,23.4-10.7,43.9-15,64.5-1.7,8.2-4.8,10.7-13,8-8.8-2.9-21.5-2.1-25.9-8-4.8-6.2,2.3-17.5,4.4-26.5,13-56.1,26.5-112.1,39.4-168.2,1.8-8,4.1-12.6,13.1-8.5,1.9.9,4.2,1.1,6.3,1.6q18.9,4.6,17.5,24.1c11.4-8.7,23-14.4,36.9-13.7,31.7,1.7,56.2,25.5,58.1,57.4,1.8,31-5.8,59.4-26.9,83-18.6,20.8-53,24.5-76.1,9.2-7.8-5.2-12.1-13.1-18.7-23ZM793,1763.2c.3-21.1-6-32.5-19.3-37.9-13.8-5.5-27.6-3.2-36.2,8.1-12.4,16.4-17.8,35.3-14.1,55.8,2.4,13,11.1,20.8,23.8,23.6,12.7,2.8,23.5-.6,31.7-11.1,9.4-12.1,13.2-26.1,14.1-38.5Z"/>
  <path class="st3" d="M161.4,1201.5c9.8,22,18.8,44.4,28.5,66.5,2.9,6.5,2.8,9.7-4.6,12.8-24.7,10.2-24.6,10.6-35.1-14.3-7.2-16.9-14.6-33.7-21.3-50.8-2.7-6.8-5.6-7.5-12-4.6-21,9.4-42.5,17.8-63.5,27.1-6.2,2.8-8.8,1.8-11.1-4.5-3.7-10.5-13.4-22.3-10.9-30.6,2.6-8.5,18.4-10.1,28.6-14.4,49.3-21.1,98.7-41.7,147.9-63,9-3.9,11.9-2,15.4,6.6,15.7,38.3,32.1,76.3,48.3,114.4,1,2.3,1.9,4.7,2.7,6.7.1,1.8-.2,3.1-1.8,3.8-1,.4-1.9.9-2.9,1.4q-26.8,13.7-38.4-13.7c-8.8-20.9-17.8-41.7-26.4-62.7-2.3-5.7-4.8-6.8-10.4-4.2"/>
  <path class="st3" d="M170.1,1441.2c-3.1-3.1-7.7-3-11.7-4.4-17.5-6-29.5-17.7-36.6-34.4-8.2-19.2-3.7-37.5,12-50.7,17.2-14.4,37.6-16.6,55-5.6,11.1,7.1,19.7,16.8,28.1,26.7,4.9,5.8,9.6,11.8,15.9,16.1,4.9,3.3,10.1,3.8,15,0,4.7-3.6,6.9-8,5.7-14.1-3.6-18.3-16.4-28.3-34.8-26.6-2.2.2-4.3,1-5.8-1.3-5.8-8.7-11.7-17.3-17.3-26.1-3-4.7,2-5.2,4.4-6.4,19.4-9.8,40.6-6.9,57,8.5,15,14.1,25.8,30.9,31,51,5.7,22.1,1,35.3-18.1,48.3-21.7,14.8-43.8,29.1-65.6,43.8-7,4.7-15.1,8.5-16,19-.4,4-4,4.9-6.7.8-6.4-9.6-13.1-19-19.1-28.8-5.1-8.5,6.1-9.7,7.7-15.7ZM218.2,1408.7c-12.8-7.8-20.3-19.1-30.8-27.1-9.8-7.5-19.8-6.8-28.1,1.6-7,7.2-6.7,16.7.7,26.3,11.5,14.7,26.5,18,42.9,9,4.7-2.6,9.1-5.8,15.2-9.8Z"/>
  <path class="st3" d="M353.8,1638.1c-7.6-.8-15.1-1-22.4-2.4-18-3.6-31.6-13.8-40.1-29.9-9.1-17.3-5.8-33.5,6.5-48.1,12.7-15.1,28.5-21.5,48-15.9,12.3,3.5,22.8,10.4,33.4,17.2,6.3,4,12.8,8.1,19.7,11.1,5.6,2.4,11.3,1.5,15.3-4.2,3.7-5.3,4-10.5.6-16.1-9.8-16.4-22.8-21.1-40.4-14.4-1.3.5-3.2,1.4-3.9.8-9-7.1-18.1-14.2-26.5-22-2.9-2.7,1.6-4.8,3.5-6.5,16.2-14.7,37.2-17.7,57.1-7.4,17.5,9,32.2,21.6,42.7,38.6,13,20.9,12,35.1-3.8,54.1-17.5,21-35.2,41.9-52.7,62.9-4.3,5.2-8.8,10.2-7.2,18.2,1,4.8-2.2,6.9-6.4,3.4-9-7.2-17.6-14.8-26.5-22.2-2.8-2.3-2.5-4.6-1.3-7.6,1.3-3.2,4.5-5.7,4.3-9.6ZM390.7,1593.6c-4.4-1.7-8.1-3-11.6-4.6-3.6-1.7-7-3.8-10.5-5.6-4.8-2.5-9.4-5.3-14.4-7.3-11.5-4.6-21.2-1.1-26.7,9.1-5,9.1-1.7,18.7,8.7,25.8,15.5,10.5,29.6,9.3,42.8-3.9,4-4,7.5-8.6,11.6-13.4Z"/>
  <path class="st3" d="M1834.1,1388.4c0,45.7-51,99.8-107.1,69.1-18.6-10.2-35.5-22.3-46.2-41-15.3-26.5-10.1-58.7,12.7-83.6,21.2-23.1,50.9-28.5,81-14.7q28.8,13.2,11.6,38.8c-12.8,19.1-25.4,38.5-38.6,57.4-4.2,6-2.7,8.4,3.4,10.8,13,5.2,25.3,5.8,36.3-4.3,10.8-9.9,15.5-21.6,9.1-35.9-1.4-3.1-.9-5.4.8-7.9,5.6-8.4,11.4-16.7,16.8-25.2,3.2-5,5.4-3,7.9.3,8.7,11.3,12.1,24.3,12.4,36.2ZM1707.1,1378c0,9.2,4.6,16.4,10.3,23.1,3.4,4,5.5,3,8.1-.9,9.1-13.8,18.2-27.6,27.7-41.2,3-4.4,1.4-5.9-2.6-7.8-19.7-9.3-43.1,5.1-43.4,26.8Z"/>
  <path class="st3" d="M937.2,1710.6c49.6.5,79.4,31.2,78.9,81.2-.5,49.9-31.3,82.1-77.9,81.5-48.6-.7-78.4-31.7-77.9-81.3.5-49.4,31.2-81.9,76.9-81.4ZM901.6,1793.7c.2,8.1,1,15.6,3.5,22.8,5.3,14.7,15.4,22.3,30.7,22.9,15.6.6,26.6-5.6,32.7-19.9,7.3-17.2,8.3-35,2.2-52.7-4.9-14.3-15.8-21.9-31-22.6-14.6-.7-26.4,6.7-32.5,20.5-4.2,9.4-5.3,19.4-5.6,29Z"/>
  <path class="st3" d="M1750.6,1239.8c2.6-25.1,13.1-48.2,34.3-65.5,12.5-10.2,27.2-9.9,42.1-6.3,3.8.9,4.5,2.5,2.9,6.1-4.1,8.8-8.1,17.7-11.7,26.7-1.8,4.4-4.7,4.3-8.6,4.2-15.6,0-31.3,22.1-26.3,37,3,9,11.7,11.5,18.5,4.5,7-7.2,13-15.4,19.1-23.3,6.2-8,12-16.2,19.5-23,13.8-12.6,29.1-18.5,47.4-10.5,18.6,8.2,29.7,22.6,29.1,42.8-1,31.5-12.9,58.9-37.9,79.1-12.2,9.9-27,10.8-42.1,7-5.5-1.4-7.4-3.4-4.5-8.9,2.8-5.4,5.2-11.1,7.5-16.8,3.2-8.1,5.6-16.1,17.9-12.5,5.8,1.7,10.6-3.5,14.3-8.1,6.4-8,10.5-17.1,12.5-27.2,1.2-6.1.3-11.9-5.5-15.1-6.1-3.4-11.9-1.5-16.4,3.8-6.9,8.3-13.6,16.7-20.5,25.1-5,6.1-9.9,12.3-15.4,18.1-11.9,12.6-25.5,20-43.4,13.2-18.6-7-28.7-20.8-32-40-.5-2.8-.4-5.7-.8-10.5Z"/>
  <path class="st3" d="M510.9,1756.8c-25.6-4.2-53-17-71.6-44.3-9.1-13.3-9.3-28.3-3.7-43.5,2.3-6.3,5-6.8,10.2-3.4,4.2,2.8,8.7,5.1,13.2,7.4,8.7,4.4,17.6,7.9,12.7,21.1-1.9,5.1,2.7,10.2,6.7,14,7.1,6.9,15.4,11.7,24.9,14.7,6.8,2.1,13,2.1,17.2-4.6,4-6.4,1.1-11.7-3.5-16.4-6.8-6.9-13.8-13.7-20.7-20.6-6.3-6.4-12.9-12.6-18.8-19.4-10.7-12.5-16.5-26.2-8.9-42.7,8-17.2,21.8-26.7,40.2-28.7,27.6-3,66.9,20.1,78.3,45.2,5.5,12.2,3.9,24.6,0,36.9-1.5,4.8-4.2,4.8-8.1,2.4-4.9-3.1-9.9-5.8-15-8.5-7.5-4-14.1-6.7-12.2-18.7,2-12.7-23.6-28.9-36.1-24.7-8.1,2.7-10.6,11.2-4.5,18.2,6.9,7.8,14.7,14.8,22.3,22,7.6,7.1,15.4,14.1,21.5,22.7,10.2,14.4,13,29.5,4.6,45.6-8.4,16-24.3,25.5-48.6,25.3Z"/>
  <path class="st3" d="M1379.9,1768.2c-7.4,23.8-23.6,36.4-46.3,41.6-19,4.3-35-1.6-46.4-17.4-7.2-10-11.8-21.3-16.3-32.7-9.2-23.4-18.3-46.9-28-70.2-2.8-6.6-2.6-10.3,5.1-12.6,7.5-2.3,14.9-5.4,22-8.7,6.1-2.9,8.5-1.2,10.8,5,9.4,24.9,19.4,49.6,29.3,74.3,1.2,3,2.4,6,3.8,8.9,7.3,14.9,15.6,19.2,29,15.3,15-4.3,24-17,22.2-31.5-1.1-8.6-4.1-16.7-7.3-24.8-8.3-20.7-16-41.6-24.8-62.1-3.1-7.3-1.5-10,5.6-12.2,7.9-2.4,15.5-5.9,23-9.1,4.3-1.9,6.5-.8,8.2,3.5,17.1,43.5,34.3,87,51.6,130.5,1.9,4.6.4,6.6-3.7,8-4.4,1.5-8.7,3.3-13.1,5q-16.5,6.5-24.9-10.7Z"/>
  <path class="st3" d="M1700.9,1545.7c2.1,26.7-9.7,44.9-30.5,57.9-14,8.8-28.5,9-43,1.2-9-4.8-16.7-11.3-23.9-18.4-20.2-20-40-40.4-60.5-60.1-5.8-5.5-5.2-8.8.4-13.3,8.1-6.5,13.8-20.2,22.8-19.5,7.7.6,14.7,12.5,21.8,19.6,14.8,14.7,29.4,29.6,44.4,44.2,13.9,13.5,24.3,14.7,35.8,4.8,13.4-11.6,15.9-27.1,4.9-41.2-17-22-38.5-39.8-57.7-59.7-9.8-10.2-10.2-10.2,0-19.9,6.2-5.9,11.2-16.6,18.8-16.4,7.5.2,12.7,10.6,18.8,16.6,27.4,27.1,54.3,54.6,82,81.4,6.4,6.2,6,10-.4,14.9-2.6,2-4.6,4.5-6.9,6.8q-12.2,12.2-26.7,1.2Z"/>
  <path class="st3" d="M1823,985.6c24.1,1,42.1,11.2,52,33.8,2.8,6.2,5.7,12.4,8.3,18.7,4.1,9.8,10.4,17.4,21.1,20,6.1,1.5,7.4,4.6,5,10-.6,1.3-.5,2.9-1,4.2-3.1,7.8-2.4,22.7-8.1,22.7-12.7,0-26-5.3-34.7-16.6-6.9-9-10.5-19.6-15-29.8-5.1-11.4-13.6-18.5-26.2-19.8-13.8-1.4-22.8,4.5-27.5,17.5-5.4,14.9-3.3,28,9.4,34,14.5,6.8,12.4,15.4,8.9,27-6.5,22-6.7,22.5-26.9,10.2-19.1-11.6-29.5-28.6-28.8-50.9,1.1-32.2,11.5-59.9,41.6-76.6,6.8-3.7,14.3-4.3,21.9-4.4Z"/>
  <path class="st3" d="M1217.2,1842.7c-20,.2-28.7-6.2-32.6-22.7-6.7-27.6-13.2-55.3-19.1-83.1-1.6-7.7-4.3-9.8-11.4-6.8-8.2,3.4-13.7,1.9-14.1-8.4,0-2.5-.6-5.1-1.6-7.4-3.7-8.2.2-11.1,7.7-11.7,8.6-.7,11.8-4,8.6-13-2.6-7.4-3.1-15.5-5.6-23-2.2-6.8,0-8.9,6.5-9.8,9.9-1.4,21.5-9.2,28.8-4.8,7.4,4.4,6.4,18.2,8.2,27.9,1.7,9,4.8,12.7,13.9,8.9,9.7-4.1,14.5-1.6,16.3,9.6,2.3,15,3.3,15.3-11.7,18.3-7,1.4-9.4,3.4-7.4,11.1,5.8,22.6,10.5,45.5,15.8,68.3,3,12.8,5.5,15,17.7,11.3,9.2-2.8,10.9,1.1,12.4,8.6,3.7,18.4,4.1,18.5-14.6,23-7,1.7-14.1,2.8-17.9,3.5Z"/>
  <path class="st3" d="M240.9,1552.7c-2.6-2.7-4.9-5-7-7.4-6.1-7-16.9-14.1-17-21.2,0-8.4,12.3-13.6,19.5-20,41.3-36.9,82.9-73.5,124.1-110.6,5.9-5.3,9.6-6.9,14.9.5,5.6,7.9,17.6,15.1,17.2,22.2-.4,7-12.5,13.5-19.7,19.9-41.4,36.9-82.8,73.6-124.3,110.4-2.4,2.1-4.9,4-7.7,6.2Z"/>
  <path class="st3" d="M1085.3,1732.9c2.6-4.3,4.8-7.8,6.9-11.3,4-6.7,9.4-11.7,16.4-15.1,18.7-9,22.4-7.1,24.3,13.3.6,6.8,3.6,14.7,1.1,20-2.5,5.3-11.7,2.6-17.8,4.2-16.2,4.3-24.6,14-24.5,30.9.2,26,4.9,51.5,7.8,77.2.8,7.2,0,10.7-8.2,10.7-7.9,0-15.8,1.2-23.6,2.5-5.5.9-7.7-.6-8.3-6.3-5-45.4-10.1-90.8-15.4-136.2-.8-6.5.8-9.6,7.6-9.3,1.8,0,3.6-.2,5.4-.4,7.5-.6,15.9-4.7,22.2-1.3,6.2,3.3,1.7,13.3,6.1,21Z"/>
  <path class="st3" d="M1644.7,1374.2c-5.6-17.3-10.4-32.3-15.4-47.1-1.1-3.3.5-5.4,1.9-7.9,15.1-25.6,15.5-25.8,45.2-27.3,7.4-.4,14.8-.9,24.3-1.5-6,9.1-10.6,17.2-16.4,24.3-4.9,6-12.9,3.3-19.4,3.3-9.9,0-12.5,4.1-7.7,12,11,18.2-2.8,29-12.5,44.3Z"/>
  <path class="st3" d="M1921.2,1098.4c2.7-10.6,5.3-20.7,7.8-30.7.9-3.6,2.3-5.4,6.8-4,9.2,2.9,18.6,5.2,28,7.3,4.7,1,6.1,3,4.3,7.4-.5,1.3-.6,2.8-1,4.2q-8.4,33.4-41.4,21.7c-3.4-1.2-6.3-1.9-4.6-5.9Z"/>
  <path class="st1" d="M911.7,548.3c-8.7,12.6-8.4,26.9-8.5,41.4-.2,36-.5,72-1.9,107.9-2.1,52.5,20.1,93.2,58.9,126.2,10.7,9.1,23.3,15.3,37.5,18.4,7,1.5,8.1-.3,7.6-6.5-2.2-26.6-4.1-53.4-1.9-79.9,5.9-72.8,16.9-144.4,54.5-209.2,32.7-56.3,80.4-94.5,140.2-117.8,25.1-9.8,52.3-8.6,79-8.1,33.2.7,64.8,8.7,95.6,20,55.9,20.6,99.1,54.9,118.9,113.8,13.2,39.3,28.3,78.4,29.2,120.2,1.2,62-4.3,122.9-39.2,177.6-11.6,18.2-23.9,34.8-40.6,48.4-19.9,16.3-43,22.4-68.1,22.6-4.5,0-10.1.2-12.5-4.6-2.1-4.4,2.8-6.9,4.9-10,17.7-26.8,26.5-55.6,21.2-88-6-36.7-36.1-52.9-64.6-56.9-40.2-5.6-68.5,24.3-75.2,55.7-7,32.8-5.2,64.8-1,97.6,6.3,49.1,9.8,98.7-3.3,147.1-16.7,61.6-45.8,115.3-107.5,143.6-22.9,10.5-46.5,18.9-71.4,24-14,2.9-26.9,9.9-38.8,18.4-6.6,4.8-7.9,12.6-12.5,18.4-35.3,0-70.7.2-106,.3-5.6-27.7-28-34.5-50.9-41.6-31.1-9.6-59.8-24.2-84.4-45.9-35.5-31.1-54.3-72-66.6-116.3-13.3-47.8-9.5-94.9,8.5-140.7,6-15.3,13.5-30.3,22.1-44.4,19-31.2,26.1-65.9,32.4-101,.9-4.9,1.3-9.9,1.9-14.9,2.1-2.7,2.1-6,2.8-9.1,3.7-17.6,4.4-35.6,5.6-53.5,2.1-30.9-5.2-60.4-13.7-89.7,5.8-3,9.7-7.7,9.4-14.4-.9-18.4-7.5-35-17.3-50.4,1.2-14.9,6.1-27.7,18.8-36.9,9.9-7.2,20.4-12.7,31.8-17.2,33.7-13.1,74.5,2.7,87.6,28.1,4.8,9.4,9.5,19.7,17.7,27.3ZM858.1,980.3c.5,24.8,5.9,41.5,22.8,59.8,25.6,27.7,55.8,50.4,83.5,75.9,3.6,3.4,6.4,3.6,10.1,0,25.8-25.4,55-47.1,80.3-73.1,18.7-19.3,26.1-42.4,25.7-68.6-.2-15.3-5.3-28.9-16.2-39.9-24.1-24.5-63.8-22.2-87.8,5.7-5.7,6.6-8.5,7.6-14.5.5-17.8-21.2-45.1-28.8-67.9-19.4-22,9.1-38.2,29.7-36,59.2ZM842.9,551.5c0-9.9-5.8-14.6-18.2-14.7-10.7,0-14.8,3.6-14.9,13.6,0,9.5,7.3,17.4,16.7,17.7,8.1.3,16.3-8.1,16.4-16.7Z"/>
  <path class="st0" d="M911.7,548.3c-8.2-7.6-12.8-17.9-17.7-27.3-13.1-25.4-53.9-41.3-87.6-28.1-11.4,4.4-21.9,10-31.8,17.2-12.7,9.2-17.6,22-18.8,36.9-3.6,1.4-6.7-1-10.1-1.4-38.9-13-64.2-39.7-75.7-78.4-8.4-28.1-8.9-56.8-2.8-86,6.6-31.7,20.6-58.5,44-80.3,25.4-23.7,56.4-34.8,90.4-40.8,34.9-6.1,69.7-4.2,104.2-.9,19.2,1.8,38.1,9.3,55.6,18.6,12.1,6.4,19.9,17.5,28.8,27.2,19.3,20.7,38.4,41.8,47.2,69.7,2.5,7.9,5.4,15.9,5.9,24,2.3,35.2,3,70.2-9.7,104.3-6.8,18.6-16.8,33.7-32.2,45.6-3.6,2.8-7.3,4.9-11.6,5.3-9.2.8-14.9-5.6-12.6-14.7,2.6-10.7,2.6-21.4,2.3-32.2-.3-9.4-4.1-17-13-20.5-9.5-3.8-18.5-1.4-25.9,5.6-7.2,6.9-10.9,15.9-12.9,25.6-2.4,11.8-7.4,22.2-16.2,30.6Z"/>
  <path class="st2" d="M906,1268.8c35.3,0,70.7-.2,106-.3-3.7,24.3,9.2,38.5,28.3,50.7,26.9,17.2,56.2,30.7,81.1,51.2,20.8,17.2,29.6,40,34.7,65.1.9,4.2-1.2,7-5.8,7.3-2.5.2-5,.1-7.6.1-120.3,0-240.7,0-361,0-15.6,0-16.1-2.2-12.8-17.9,7-33.9,30-54.3,56.7-72.5,17.6-12,36.9-20.7,55-31.9,20.5-12.6,29.5-28.4,25.3-51.9Z"/>
  <path class="st0" d="M763.8,611.8c8.4,29.3,15.8,58.8,13.7,89.7-1.2,17.9-1.9,35.8-5.6,53.5-.7,3.2-.6,6.5-2.8,9.1-6.2,9.1-9.3,20.3-19.1,26.8-23.7,15.8-50.5,10.7-68.1-12.6-14.8-19.6-19.2-41-16.4-65.6,4.3-38.5,19.9-71.7,41.3-103,18.9,3.9,37.8,7,57,2Z"/>
  <path class="st2" d="M763.8,611.8c-19.2,5-38.1,1.8-57-2-14.8-4.3-29.1-9.8-41.7-20.8,11.3,1.1,22.5,1.9,33.7,3.4,13.3,1.7,26.6,1.5,39.6-1.6,8.1-2,15.4-5.6,17.8-16.3-33.6,20.2-67.1,6.9-100.6,3.2,28-17.2,58.9-25.2,90.2-32.1,3.4.4,6.5,2.7,10.1,1.4,9.8,15.4,16.4,32,17.3,50.4.3,6.7-3.6,11.4-9.4,14.4Z"/>
  <path class="st0" d="M858.1,980.3c-2.2-29.5,14-50.1,36-59.2,22.8-9.4,50.1-1.8,67.9,19.4,6,7.2,8.8,6.1,14.5-.5,24-27.8,63.7-30.1,87.8-5.7,10.8,11,15.9,24.6,16.2,39.9.4,26.2-7,49.3-25.7,68.6-25.3,26-54.4,47.8-80.3,73.1-3.6,3.6-6.4,3.3-10.1,0-27.6-25.5-57.9-48.2-83.5-75.9-16.9-18.3-22.3-34.9-22.8-59.8Z"/>
  <path class="st4" d="M842.9,551.5c0,8.6-8.3,17-16.4,16.7-9.4-.3-16.8-8.2-16.7-17.7,0-10,4.2-13.7,14.9-13.6,12.4.1,18.3,4.8,18.2,14.7Z"/>
</svg>