<?xml version="1.0" encoding="UTF-8"?>
<svg id="Capa_1" xmlns="http://www.w3.org/2000/svg" version="1.1" viewBox="0 0 1298.2 492.9">
  <!-- Generator: Adobe Illustrator 29.5.1, SVG Export Plug-In . SVG Version: 2.1.0 Build 141)  -->
  <defs>
    <style>
      .st0 {
        fill: #eb1e23;
      }

      .st0, .st1, .st2, .st3 {
        fill-rule: evenodd;
      }

      .st1 {
        fill: #010100;
      }

      .st2 {
        fill: #fcfcf8;
      }

      .st3 {
        fill: #b1ae45;
      }
    </style>
  </defs>
  <g>
    <path class="st3" d="M25.8,248.1c0-119.8,96.9-218.5,218.5-218.4,120.9,0,218.5,97.3,218.6,218.4.1,121.5-98.4,218.9-219.2,218.8-120.2-.2-217.9-98-217.9-218.7ZM164.5,175.5c-6.2,9.1-10.8,18.8-12,30-.8,7.2.5,13.4,4.8,19.1,5.1,6.8,12.9,8.3,19.8,3.7,2.8-1.9,3.8-5.2,5.6-7.8-.2,1.4-.3,2.9-.6,4.3-1.8,10.2-3.9,20.3-9.5,29.4-2.5,4.1-4.7,8.5-6.4,12.9-5.2,13.3-6.4,27.1-2.5,41,3.6,12.9,9.1,24.8,19.4,33.9,7.2,6.3,15.5,10.6,24.6,13.4,6.7,2,13.2,4,14.8,12.1,1.2,6.8-1.4,11.4-7.4,15.1-5.3,3.2-10.9,5.8-16,9.3-7.8,5.3-14.5,11.3-16.5,21.1-1,4.6-.8,5.2,3.7,5.2,35.1,0,70.1,0,105.2,0,.7,0,1.5,0,2.2,0,1.3,0,1.9-.9,1.7-2.1-1.5-7.3-4.1-14-10.1-19-7.3-6-15.8-9.9-23.6-14.9-5.6-3.6-9.3-7.7-8.2-14.8,1.3-1.7,1.7-4,3.6-5.4,3.5-2.5,7.2-4.5,11.3-5.4,7.3-1.5,14.1-3.9,20.8-7,18-8.3,26.4-23.9,31.3-41.8,3.8-14.1,2.8-28.5,1-42.8-1.2-9.5-1.7-18.9.3-28.4,1.9-9.1,10.2-17.9,21.9-16.2,8.3,1.2,17.1,5.9,18.8,16.6,1.5,9.4-1,17.8-6.2,25.6-.6.9-2,1.6-1.4,2.9.7,1.4,2.3,1.4,3.6,1.3,7.3,0,14-1.9,19.8-6.6,4.9-4,8.4-8.8,11.8-14.1,10.2-15.9,11.8-33.7,11.4-51.7-.2-12.2-4.7-23.6-8.5-35-5.8-17.1-18.4-27.1-34.6-33.1-9-3.3-18.2-5.6-27.8-5.8-7.8-.2-15.7-.5-23,2.4-17.4,6.8-31.3,17.9-40.8,34.3-11,18.9-14.1,39.7-15.9,60.9-.6,7.7,0,15.5.6,23.3.2,1.8-.2,2.4-2.2,1.9-4.1-.9-7.8-2.7-10.9-5.4-11.3-9.6-17.8-21.5-17.2-36.8.4-10.5.5-21,.6-31.4,0-4.2,0-8.4,2.5-12.1,2.5-2.5,4-5.5,4.7-8.9.6-2.8,1.6-5.4,3.7-7.4,2.1-2,4.8-2.7,7.5-1.6,2.6,1,3.7,3.2,3.8,6,.1,3.1.1,6.3-.7,9.4-.7,2.7,1,4.5,3.7,4.3,1.3-.1,2.3-.7,3.4-1.5,4.5-3.5,7.4-7.9,9.4-13.3,3.7-10,3.5-20.1,2.8-30.4-.2-2.4-1-4.7-1.7-7-2.5-8.1-8.1-14.3-13.7-20.3-2.6-2.8-4.9-6-8.4-7.9-5.1-2.7-10.6-4.9-16.2-5.4-10.1-1-20.2-1.5-30.4.3-9.9,1.7-18.9,5-26.3,11.9-6.8,6.4-10.9,14.2-12.8,23.4-1.8,8.5-1.6,16.9.8,25.1,3.4,11.3,10.7,19.1,22.1,22.8-9.1,2-18.1,4.3-26.3,9.3,9.8,1.1,19.5,5,29.3-.9-.7,3.1-2.8,4.2-5.2,4.8-3.8.9-7.6,1-11.5.5-3.3-.4-6.6-.7-9.8-1,3.7,3.2,7.8,4.8,12.1,6Z"/>
    <path class="st1" d="M224.2,157.6c-2.5,3.7-2.5,7.8-2.5,12.1,0,10.5-.1,21-.6,31.4-.6,15.3,5.9,27.2,17.2,36.8,3.1,2.7,6.8,4.5,10.9,5.4,2,.4,2.4,0,2.2-1.9-.7-7.7-1.2-15.5-.6-23.3,1.7-21.2,4.9-42.1,15.9-60.9,9.5-16.4,23.4-27.5,40.8-34.3,7.3-2.8,15.2-2.5,23-2.4,9.7.2,18.9,2.5,27.8,5.8,16.3,6,28.9,16,34.6,33.1,3.8,11.4,8.3,22.8,8.5,35,.4,18.1-1.3,35.8-11.4,51.7-3.4,5.3-7,10.1-11.8,14.1-5.8,4.7-12.5,6.5-19.8,6.6-1.3,0-3,0-3.6-1.3-.6-1.3.8-2,1.4-2.9,5.1-7.8,7.7-16.2,6.2-25.6-1.7-10.7-10.5-15.4-18.8-16.6-11.7-1.6-20,7.1-21.9,16.2-2,9.5-1.5,18.9-.3,28.4,1.8,14.3,2.9,28.7-1,42.8-4.9,18-13.3,33.6-31.3,41.8-6.7,3.1-13.6,5.5-20.8,7-4.1.8-7.8,2.9-11.3,5.4-1.9,1.4-2.3,3.7-3.6,5.4-10.3,0-20.6,0-30.9,0-1.6-8.1-8.2-10.1-14.8-12.1-9.1-2.8-17.4-7.1-24.6-13.4-10.3-9.1-15.8-21-19.4-33.9-3.9-13.9-2.8-27.6,2.5-41,1.8-4.5,3.9-8.8,6.4-12.9,5.5-9.1,7.6-19.2,9.5-29.4.3-1.4.4-2.9.6-4.3.6-.8.6-1.7.8-2.7,1.1-5.1,1.3-10.4,1.6-15.6.6-9-1.5-17.6-4-26.1,1.7-.9,2.8-2.2,2.7-4.2-.3-5.4-2.2-10.2-5-14.7.3-4.3,1.8-8.1,5.5-10.8,2.9-2.1,5.9-3.7,9.3-5,9.8-3.8,21.7.8,25.5,8.2,1.4,2.7,2.8,5.7,5.2,8ZM208.5,283.4c.1,7.2,1.7,12.1,6.6,17.4,7.4,8.1,16.3,14.7,24.3,22.1,1.1,1,1.9,1.1,2.9,0,7.5-7.4,16-13.7,23.4-21.3,5.5-5.6,7.6-12.4,7.5-20,0-4.5-1.5-8.4-4.7-11.6-7-7.1-18.6-6.5-25.6,1.6-1.7,1.9-2.5,2.2-4.2.1-5.2-6.2-13.1-8.4-19.8-5.7-6.4,2.6-11.1,8.6-10.5,17.2ZM204.1,158.5c0-2.9-1.7-4.3-5.3-4.3-3.1,0-4.3,1.1-4.3,4,0,2.8,2.1,5.1,4.9,5.2,2.4,0,4.7-2.3,4.8-4.9Z"/>
    <path class="st0" d="M224.2,157.6c-2.4-2.2-3.7-5.2-5.2-8-3.8-7.4-15.7-12-25.5-8.2-3.3,1.3-6.4,2.9-9.3,5-3.7,2.7-5.1,6.4-5.5,10.8-1,.4-1.9-.3-2.9-.4-11.3-3.8-18.7-11.6-22.1-22.8-2.4-8.2-2.6-16.5-.8-25.1,1.9-9.2,6-17,12.8-23.4,7.4-6.9,16.4-10.1,26.3-11.9,10.2-1.8,20.3-1.2,30.4-.3,5.6.5,11.1,2.7,16.2,5.4,3.5,1.9,5.8,5.1,8.4,7.9,5.6,6,11.2,12.2,13.7,20.3.7,2.3,1.6,4.6,1.7,7,.7,10.3.9,20.4-2.8,30.4-2,5.4-4.9,9.8-9.4,13.3-1,.8-2.1,1.4-3.4,1.5-2.7.2-4.3-1.6-3.7-4.3.8-3.1.8-6.2.7-9.4,0-2.7-1.2-4.9-3.8-6-2.8-1.1-5.4-.4-7.5,1.6-2.1,2-3.2,4.6-3.7,7.4-.7,3.4-2.2,6.5-4.7,8.9Z"/>
    <path class="st2" d="M222.5,367.5c10.3,0,20.6,0,30.9,0-1.1,7.1,2.7,11.2,8.2,14.8,7.8,5,16.4,8.9,23.6,14.9,6.1,5,8.6,11.7,10.1,19,.2,1.2-.3,2-1.7,2.1-.7,0-1.5,0-2.2,0-35.1,0-70.1,0-105.2,0-4.5,0-4.7-.6-3.7-5.2,2-9.9,8.7-15.8,16.5-21.1,5.1-3.5,10.8-6,16-9.3,6-3.7,8.6-8.3,7.4-15.1Z"/>
    <path class="st0" d="M181.1,176.1c2.5,8.5,4.6,17.1,4,26.1-.4,5.2-.6,10.4-1.6,15.6-.2.9-.2,1.9-.8,2.7-1.8,2.6-2.7,5.9-5.6,7.8-6.9,4.6-14.7,3.1-19.8-3.7-4.3-5.7-5.6-11.9-4.8-19.1,1.3-11.2,5.8-20.9,12-30,5.5,1.1,11,2,16.6.6Z"/>
    <path class="st2" d="M181.1,176.1c-5.6,1.4-11.1.5-16.6-.6-4.3-1.3-8.5-2.8-12.1-6,3.3.3,6.6.6,9.8,1,3.9.5,7.7.5,11.5-.5,2.4-.6,4.5-1.6,5.2-4.8-9.8,5.9-19.5,2-29.3.9,8.2-5,17.2-7.3,26.3-9.3,1,.1,1.9.8,2.9.4,2.9,4.5,4.8,9.3,5,14.7,0,1.9-1,3.3-2.7,4.2Z"/>
    <path class="st0" d="M208.5,283.4c-.6-8.6,4.1-14.6,10.5-17.2,6.6-2.7,14.6-.5,19.8,5.7,1.8,2.1,2.6,1.8,4.2-.1,7-8.1,18.5-8.8,25.6-1.6,3.2,3.2,4.6,7.2,4.7,11.6.1,7.6-2,14.4-7.5,20-7.4,7.6-15.9,13.9-23.4,21.3-1.1,1-1.9,1-2.9,0-8.1-7.4-16.9-14-24.3-22.1-4.9-5.3-6.5-10.2-6.6-17.4Z"/>
    <path class="st3" d="M204.1,158.5c0,2.5-2.4,4.9-4.8,4.9-2.7-.1-4.9-2.4-4.9-5.2,0-2.9,1.2-4,4.3-4,3.6,0,5.3,1.4,5.3,4.3Z"/>
  </g>
  <g>
    <path d="M583.4,186.3h-50.8v23.3h44.5v17.6h-44.5v42.5h-21v-101.1h71.8v17.8Z"/>
    <path d="M598.8,202.8c5.2-6.6,14.1-9.9,26.7-9.9s15.5,1.6,21.9,4.9c6.4,3.3,9.6,9.4,9.6,18.4v34.4c0,2.4,0,5.3.1,8.7.1,2.6.5,4.3,1.2,5.2.6.9,1.6,1.7,2.9,2.3v2.9h-21.3c-.6-1.5-1-2.9-1.2-4.3-.2-1.3-.4-2.8-.5-4.5-2.7,2.9-5.8,5.4-9.3,7.5-4.2,2.4-9,3.6-14.3,3.6s-12.4-1.9-16.8-5.8c-4.4-3.9-6.6-9.4-6.6-16.5s3.5-15.9,10.7-20c3.9-2.2,9.6-3.8,17.2-4.8l6.7-.8c3.6-.5,6.2-1,7.8-1.7,2.8-1.2,4.2-3,4.2-5.6s-1.1-5.2-3.2-6.4-5.3-1.8-9.4-1.8-7.9,1.1-9.8,3.4c-1.4,1.7-2.3,4-2.7,6.9h-18.9c.4-6.6,2.2-11.9,5.5-16.1ZM613.4,255.5c1.8,1.5,4.1,2.3,6.7,2.3,4.2,0,8.1-1.2,11.6-3.7,3.5-2.5,5.4-7,5.5-13.5v-7.3c-1.2.8-2.5,1.4-3.7,1.9-1.3.5-3,.9-5.2,1.3l-4.4.8c-4.1.7-7.1,1.6-8.9,2.7-3,1.8-4.5,4.6-4.5,8.3s.9,5.7,2.8,7.2Z"/>
    <path d="M674.7,168.3h19.6v101.3h-19.6v-101.3Z"/>
    <path d="M716.2,202.8c5.2-6.6,14.1-9.9,26.7-9.9s15.5,1.6,21.9,4.9c6.4,3.3,9.6,9.4,9.6,18.4v34.4c0,2.4,0,5.3.1,8.7.1,2.6.5,4.3,1.2,5.2.6.9,1.6,1.7,2.9,2.3v2.9h-21.3c-.6-1.5-1-2.9-1.2-4.3-.2-1.3-.4-2.8-.5-4.5-2.7,2.9-5.8,5.4-9.3,7.5-4.2,2.4-9,3.6-14.3,3.6s-12.4-1.9-16.8-5.8c-4.4-3.9-6.6-9.4-6.6-16.5s3.5-15.9,10.7-20c3.9-2.2,9.6-3.8,17.2-4.8l6.7-.8c3.6-.5,6.2-1,7.8-1.7,2.8-1.2,4.2-3,4.2-5.6s-1.1-5.2-3.2-6.4-5.3-1.8-9.4-1.8-7.9,1.1-9.8,3.4c-1.4,1.7-2.3,4-2.7,6.9h-18.9c.4-6.6,2.2-11.9,5.5-16.1ZM730.7,255.5c1.8,1.5,4.1,2.3,6.7,2.3,4.2,0,8.1-1.2,11.6-3.7,3.5-2.5,5.4-7,5.5-13.5v-7.3c-1.2.8-2.5,1.4-3.7,1.9-1.3.5-3,.9-5.2,1.3l-4.4.8c-4.1.7-7.1,1.6-8.9,2.7-3,1.8-4.5,4.6-4.5,8.3s.9,5.7,2.8,7.2Z"/>
    <path d="M843.2,198.2c5.9,3.8,9.2,10.2,10.1,19.4h-19.6c-.3-2.5-1-4.5-2.1-6-2.2-2.7-5.8-4-11-4s-7.3.7-9.1,2c-1.8,1.3-2.7,2.9-2.7,4.7s1,3.9,2.9,4.9c1.9,1.1,8.7,2.9,20.4,5.4,7.8,1.8,13.6,4.6,17.5,8.3,3.8,3.8,5.8,8.5,5.8,14.1s-2.8,13.5-8.3,18.2c-5.5,4.7-14.1,7-25.6,7s-20.5-2.5-26.1-7.5-8.4-11.3-8.4-19h19.9c.4,3.5,1.3,6,2.7,7.4,2.4,2.6,6.9,3.9,13.5,3.9s6.9-.6,9.2-1.7c2.3-1.1,3.4-2.9,3.4-5.2s-.9-3.9-2.7-5c-1.8-1.1-8.6-3.1-20.4-5.9-8.5-2.1-14.5-4.7-17.9-7.9-3.5-3.1-5.2-7.6-5.2-13.5s2.7-12.9,8.1-17.8c5.4-5,13.1-7.5,22.9-7.5s17,1.9,22.9,5.6Z"/>
    <path d="M572.8,341.9c6,6.5,9.1,15.9,9.1,28.4s-3,23.2-8.9,30.2c-5.9,6.9-13.6,10.4-22.9,10.4s-10.9-1.5-14.8-4.5c-2.2-1.6-4.3-4.1-6.3-7.2v39h-19.4v-104.4h18.8v11.1c2.1-3.3,4.4-5.8,6.7-7.7,4.4-3.3,9.5-5,15.5-5,8.7,0,16.2,3.2,22.3,9.7ZM561.6,371.3c0-5.8-1.3-10.9-4-15.3-2.6-4.4-6.9-6.7-12.8-6.7s-12,3.4-14.6,10.1c-1.4,3.6-2.1,8.1-2.1,13.6,0,8.7,2.3,14.8,6.9,18.3,2.7,2.1,6,3.1,9.8,3.1,5.5,0,9.6-2.1,12.5-6.3,2.9-4.2,4.3-9.8,4.3-16.8Z"/>
    <path d="M658.5,343.4c6.3,7.9,9.5,17.3,9.5,28.1s-3.2,20.4-9.5,28.2c-6.3,7.8-15.9,11.7-28.8,11.7s-22.5-3.9-28.8-11.7c-6.3-7.8-9.5-17.2-9.5-28.2s3.2-20.2,9.5-28.1c6.3-7.9,15.9-11.9,28.8-11.9s22.5,4,28.8,11.9ZM629.6,348.1c-5.7,0-10.1,2-13.2,6.1-3.1,4.1-4.6,9.8-4.6,17.4s1.5,13.3,4.6,17.4c3.1,4.1,7.5,6.1,13.2,6.1s10.1-2,13.2-6.1c3.1-4.1,4.6-9.9,4.6-17.4s-1.5-13.3-4.6-17.4c-3.1-4.1-7.5-6.1-13.2-6.1Z"/>
    <path d="M719.6,352c-7.9,0-13.2,2.6-15.9,7.7-1.5,2.9-2.3,7.3-2.3,13.3v35.8h-19.7v-74.9h18.7v13.1c3-5,5.7-8.4,7.9-10.2,3.7-3.1,8.4-4.6,14.3-4.6s.7,0,.9,0c.3,0,.8,0,1.7.1v20.1c-1.2-.1-2.3-.2-3.3-.3-1,0-1.7,0-2.3,0Z"/>
    <path d="M771,394.8v14.6l-9.3.3c-9.3.3-15.6-1.3-19-4.8-2.2-2.2-3.3-5.7-3.3-10.4v-46.1h-10.4v-13.9h10.4v-20.9h19.4v20.9h12.2v13.9h-12.2v39.6c0,3.1.4,5,1.2,5.7.8.8,3.2,1.1,7.1,1.1s1.2,0,1.9,0c.7,0,1.3,0,2-.1Z"/>
    <path d="M831.6,398.2c-.2.2-.6.9-1.4,2.1-.7,1.1-1.6,2.2-2.6,3-3.1,2.7-6,4.6-8.9,5.6-2.9,1-6.2,1.5-10.1,1.5-11.1,0-18.6-4-22.4-12-2.2-4.4-3.2-10.9-3.2-19.4v-45.1h20.1v45.1c0,4.3.5,7.5,1.5,9.6,1.8,3.8,5.3,5.7,10.5,5.7s11.3-2.7,13.7-8.1c1.3-2.9,1.9-6.8,1.9-11.6v-40.7h19.9v74.9h-19v-10.6Z"/>
    <path d="M890.7,421.9c2.1,1.8,5.7,2.7,10.7,2.7s11.8-2.4,14.2-7.1c1.6-3,2.3-8.1,2.3-15.3v-4.8c-1.9,3.2-3.9,5.6-6,7.2-3.9,3-9,4.5-15.2,4.5-9.6,0-17.3-3.4-23.1-10.1-5.7-6.8-8.6-15.9-8.6-27.5s2.8-20.5,8.3-28.1c5.5-7.6,13.4-11.4,23.6-11.4s7,.6,9.8,1.7c4.8,2,8.6,5.6,11.5,10.9v-10.8h19v71c0,9.7-1.6,16.9-4.9,21.9-5.6,8.4-16.3,12.6-32.2,12.6s-17.4-1.9-23.4-5.6c-6-3.8-9.4-9.4-10-16.8h21.3c.5,2.3,1.4,3.9,2.7,4.9ZM887.4,383.2c2.7,6.3,7.4,9.5,14.3,9.5s8.5-1.7,11.6-5.2c3.2-3.5,4.7-9,4.7-16.5s-1.5-12.5-4.5-16.2c-3-3.7-7-5.6-12.1-5.6s-11.6,3.2-14.2,9.7c-1.4,3.4-2.1,7.7-2.1,12.7s.7,8.2,2.2,11.6Z"/>
    <path d="M1003.5,398.2c-.2.2-.6.9-1.4,2.1-.7,1.1-1.6,2.2-2.6,3-3.1,2.7-6,4.6-8.9,5.6-2.9,1-6.2,1.5-10.1,1.5-11.1,0-18.6-4-22.4-12-2.2-4.4-3.2-10.9-3.2-19.4v-45.1h20.1v45.1c0,4.3.5,7.5,1.5,9.6,1.8,3.8,5.3,5.7,10.5,5.7s11.3-2.7,13.7-8.1c1.3-2.9,1.9-6.8,1.9-11.6v-40.7h19.9v74.9h-19v-10.6Z"/>
    <path d="M1105.6,386.8c-.5,4.4-2.8,9-6.9,13.5-6.4,7.3-15.4,10.9-26.9,10.9s-17.9-3.1-25.2-9.2c-7.3-6.1-10.9-16.1-10.9-30s3.3-22.9,9.9-29.8c6.6-6.9,15.1-10.4,25.6-10.4s11.8,1.2,16.8,3.5c5,2.3,9.1,6,12.4,11.1,2.9,4.4,4.8,9.6,5.7,15.5.5,3.4.7,8.4.6,14.8h-51.3c.3,7.5,2.6,12.8,7.1,15.8,2.7,1.9,6,2.8,9.8,2.8s7.3-1.1,9.8-3.4c1.4-1.2,2.6-3,3.6-5.2h20ZM1063.6,303.3h17.6l16.1,20.5h-15.9l-8.9-11.5-9,11.5h-15.9l16.1-20.5ZM1086.2,363.9c-.3-5.2-1.9-9.1-4.7-11.8-2.8-2.7-6.3-4-10.5-4s-8.1,1.4-10.5,4.3c-2.5,2.8-4.1,6.7-4.7,11.5h30.4Z"/>
    <path d="M1171.3,337.3c5.9,3.8,9.2,10.2,10.1,19.4h-19.6c-.3-2.5-1-4.5-2.1-6-2.2-2.7-5.8-4-11-4s-7.3.7-9.1,2c-1.8,1.3-2.7,2.9-2.7,4.7s1,3.9,2.9,4.9c1.9,1.1,8.7,2.9,20.4,5.4,7.8,1.8,13.6,4.6,17.5,8.3,3.8,3.8,5.8,8.5,5.8,14.1s-2.8,13.5-8.3,18.2c-5.5,4.7-14.1,7-25.6,7s-20.5-2.5-26.1-7.5-8.4-11.3-8.4-19h19.9c.4,3.5,1.3,6,2.7,7.4,2.4,2.6,6.9,3.9,13.5,3.9s6.9-.6,9.2-1.7c2.3-1.1,3.4-2.9,3.4-5.2s-.9-3.9-2.7-5c-1.8-1.1-8.6-3.1-20.4-5.9-8.5-2.1-14.5-4.7-17.9-7.9-3.5-3.1-5.2-7.6-5.2-13.5s2.7-12.9,8.1-17.8c5.4-5,13.1-7.5,22.9-7.5s17,1.9,22.9,5.6Z"/>
    <path d="M1242.3,371.4c-.5,1.7-.8,4.4-.9,8.1h-18.6c.3-7.7,1-13.1,2.2-16,1.2-3,4.3-6.4,9.2-10.2l5-3.9c1.6-1.2,3-2.6,4-4.1,1.8-2.5,2.7-5.3,2.7-8.3s-1-6.7-3.1-9.5c-2-2.9-5.8-4.3-11.2-4.3s-9.1,1.8-11.3,5.3c-2.2,3.5-3.3,7.2-3.3,11h-19.9c.5-13.1,5.1-22.3,13.7-27.8,5.4-3.5,12-5.2,19.9-5.2s19,2.5,25.8,7.4c6.8,4.9,10.3,12.3,10.3,22s-1.5,11-4.5,15c-1.7,2.5-5.1,5.6-10,9.5l-4.9,3.8c-2.7,2.1-4.4,4.5-5.3,7.2ZM1242.9,408.8h-20.5v-19.9h20.5v19.9Z"/>
  </g>
  <g>
    <path d="M552.3,107.8h-22.8l-4.3,12.7h-13.5l22.1-61.9h14.6l21.9,61.9h-14l-4-12.7ZM548.7,97.1l-7.7-24.4-8,24.4h15.7Z"/>
    <path d="M616.8,91.1h-12.3c-.2-1.7-.8-3.2-1.7-4.6-1.3-1.8-3.4-2.8-6.3-2.8-4,0-6.8,2-8.3,6-.8,2.1-1.2,5-1.2,8.5s.4,6.1,1.2,8.1c1.4,3.8,4.1,5.7,8.1,5.7s4.8-.8,6-2.3,1.9-3.5,2.1-5.9h12.2c-.3,3.6-1.6,7.1-3.9,10.3-3.8,5.2-9.3,7.9-16.7,7.9s-12.8-2.2-16.3-6.6c-3.5-4.4-5.2-10-5.2-17s1.9-14,5.8-18.4c3.8-4.4,9.1-6.6,15.9-6.6s10.4,1.3,14.1,3.9c3.7,2.6,5.8,7.1,6.5,13.6Z"/>
    <path d="M626.7,79.7c3.2-4,8.6-6,16.3-6s9.5,1,13.4,3c3.9,2,5.8,5.7,5.8,11.3v21c0,1.5,0,3.2,0,5.3,0,1.6.3,2.6.7,3.2.4.6,1,1,1.8,1.4v1.8h-13c-.4-.9-.6-1.8-.8-2.6-.1-.8-.3-1.7-.3-2.8-1.7,1.8-3.6,3.3-5.7,4.6-2.6,1.5-5.5,2.2-8.7,2.2s-7.6-1.2-10.3-3.5c-2.7-2.4-4.1-5.7-4.1-10.1s2.2-9.7,6.5-12.2c2.4-1.4,5.9-2.4,10.5-2.9l4.1-.5c2.2-.3,3.8-.6,4.7-1,1.7-.7,2.6-1.9,2.6-3.4s-.7-3.2-2-3.9c-1.3-.7-3.2-1.1-5.7-1.1s-4.8.7-6,2.1c-.8,1-1.4,2.4-1.7,4.2h-11.5c.3-4,1.4-7.3,3.4-9.9ZM635.6,111.8c1.1.9,2.5,1.4,4.1,1.4,2.6,0,4.9-.8,7.1-2.3,2.2-1.5,3.3-4.3,3.4-8.3v-4.5c-.8.5-1.5.9-2.3,1.2-.8.3-1.8.6-3.2.8l-2.7.5c-2.5.4-4.3,1-5.4,1.6-1.8,1.1-2.8,2.8-2.8,5.1s.6,3.5,1.7,4.4Z"/>
    <path d="M714.5,58.7v61.8h-11.6v-6.3c-1.7,2.7-3.7,4.7-5.8,5.9s-4.9,1.8-8.1,1.8c-5.3,0-9.8-2.2-13.5-6.5-3.7-4.3-5.5-9.9-5.5-16.6s1.8-14,5.4-18.4c3.6-4.5,8.4-6.7,14.4-6.7s5.2.6,7.4,1.8c2.2,1.2,3.9,2.9,5.2,5.1v-21.8h12.1ZM682.2,97.9c0,4.2.8,7.6,2.5,10.1,1.7,2.5,4.2,3.8,7.6,3.8s6-1.3,7.7-3.8,2.6-5.8,2.6-9.8-1.4-9.6-4.2-12c-1.7-1.5-3.8-2.2-6-2.2-3.5,0-6.1,1.3-7.7,4-1.6,2.6-2.5,5.9-2.5,9.8Z"/>
    <path d="M764.5,107c-.3,2.7-1.7,5.5-4.2,8.3-3.9,4.5-9.4,6.7-16.5,6.7s-11-1.9-15.4-5.6c-4.5-3.8-6.7-9.9-6.7-18.3s2-14,6-18.2c4-4.2,9.2-6.3,15.6-6.3s7.2.7,10.3,2.1c3.1,1.4,5.6,3.7,7.6,6.8,1.8,2.7,3,5.9,3.5,9.4.3,2.1.4,5.1.4,9.1h-31.3c.2,4.6,1.6,7.8,4.3,9.7,1.7,1.1,3.6,1.7,6,1.7s4.5-.7,6-2.1c.8-.8,1.6-1.8,2.2-3.1h12.2ZM752.7,93c-.2-3.2-1.2-5.6-2.9-7.2-1.7-1.6-3.9-2.5-6.4-2.5s-4.9.9-6.4,2.6c-1.5,1.7-2.5,4.1-2.9,7.1h18.6Z"/>
    <path d="M798.9,87.3c-1-2.2-3-3.3-5.9-3.3s-5.7,1.1-6.9,3.3c-.6,1.3-1,3.1-1,5.6v27.5h-12.1v-45.7h11.6v6.7c1.5-2.4,2.9-4.1,4.2-5.1,2.3-1.8,5.3-2.7,9-2.7s6.3.8,8.5,2.3c1.7,1.4,3.1,3.3,3.9,5.5,1.6-2.7,3.5-4.7,5.8-5.9,2.5-1.3,5.2-1.9,8.2-1.9s4,.4,6,1.2c2,.8,3.7,2.2,5.3,4.1,1.3,1.6,2.2,3.6,2.6,5.9.3,1.5.4,3.8.4,6.8v28.8h-12.3v-29.1c0-1.7-.3-3.2-.8-4.3-1.1-2.1-3-3.2-5.9-3.2s-5.6,1.4-6.8,4.1c-.6,1.5-1,3.2-1,5.2v27.3h-12.1v-27.3c0-2.7-.3-4.7-.8-5.9Z"/>
    <path d="M862,58.2v11h-12.1v-11h12.1ZM862,74.7v45.8h-12.1v-45.8h12.1Z"/>
    <path d="M875.3,79.7c3.2-4,8.6-6,16.3-6s9.5,1,13.4,3c3.9,2,5.8,5.7,5.8,11.3v21c0,1.5,0,3.2,0,5.3,0,1.6.3,2.6.7,3.2.4.6,1,1,1.8,1.4v1.8h-13c-.4-.9-.6-1.8-.8-2.6-.1-.8-.3-1.7-.3-2.8-1.7,1.8-3.6,3.3-5.7,4.6-2.6,1.5-5.5,2.2-8.7,2.2s-7.6-1.2-10.3-3.5c-2.7-2.4-4.1-5.7-4.1-10.1s2.2-9.7,6.5-12.2c2.4-1.4,5.9-2.4,10.5-2.9l4.1-.5c2.2-.3,3.8-.6,4.7-1,1.7-.7,2.6-1.9,2.6-3.4s-.7-3.2-2-3.9c-1.3-.7-3.2-1.1-5.7-1.1s-4.8.7-6,2.1c-.8,1-1.4,2.4-1.7,4.2h-11.5c.3-4,1.4-7.3,3.4-9.9ZM884.2,111.8c1.1.9,2.5,1.4,4.1,1.4,2.6,0,4.9-.8,7.1-2.3,2.2-1.5,3.3-4.3,3.4-8.3v-4.5c-.8.5-1.5.9-2.3,1.2-.8.3-1.8.6-3.2.8l-2.7.5c-2.5.4-4.3,1-5.4,1.6-1.8,1.1-2.8,2.8-2.8,5.1s.6,3.5,1.7,4.4Z"/>
  </g>
</svg>