<?xml version="1.0" encoding="utf-8"?>
<!-- Generator: Adobe Illustrator 25.0.1, SVG Export Plug-In . SVG Version: 6.00 Build 0)  -->
<svg version="1.1" id="Layer_1" xmlns="http://www.w3.org/2000/svg" xmlns:xlink="http://www.w3.org/1999/xlink" x="0px" y="0px"
	 viewBox="0 0 400 400" style="enable-background:new 0 0 400 400;" xml:space="preserve">
<style type="text/css">
	.st0{fill:#FDC726;}
	.st1{fill:#2896F8;}
	.st2{fill:#F45C45;}
	.st3{fill:#00B65F;}
	.st4{fill:#D5392C;}
	.st5{fill:#007AE1;}
	.st6{fill:#029141;}
	.st7{fill:#EDBB24;}
	.st8{fill:#FFFFFF;}
</style>
<g>
	<path class="st0" d="M128.1,271.9L107,293c-51.3-51.3-51.3-134.7,0-186l21.1,21.1C88.4,167.7,88.4,232.3,128.1,271.9z"/>
	<path class="st1" d="M293,293l-21.1-21.1c39.7-39.7,39.7-104.2,0-143.8L293,107C344.3,158.3,344.3,241.7,293,293z"/>
	<path class="st2" d="M293,107l-21.1,21.1c-39.7-39.7-104.2-39.7-143.8,0L107,107C158.3,55.7,241.7,55.7,293,107z"/>
	<path class="st3" d="M293,293c-51.3,51.3-134.7,51.3-186,0l21.1-21.1c39.7,39.7,104.2,39.7,143.8,0L293,293z"/>
	<path class="st4" d="M281.9,97.1l-21.2,21.2c8,6,15.1,13.1,21.1,21.1l21.2-21.2C296.7,110.3,289.7,103.3,281.9,97.1z"/>
	<path class="st5" d="M302.9,281.9l-21.2-21.2c-6,8-13.1,15.1-21.1,21.1l21.2,21.2C289.7,296.7,296.7,289.7,302.9,281.9z"/>
	<path class="st6" d="M118.1,302.9l21.2-21.2c-8-6-15.1-13.1-21.1-21.1l-21.2,21.2C103.3,289.7,110.3,296.7,118.1,302.9z"/>
	<path class="st7" d="M97.1,118.1l21.2,21.2c6-8,13.1-15.1,21.1-21.1l-21.2-21.2C110.3,103.3,103.3,110.3,97.1,118.1z"/>
	<circle class="st8" cx="200" cy="200" r="111.8"/>
</g>
<path d="M162.3,162.6c0-20.8,16.9-37.6,37.7-37.6s37.7,16.8,37.7,37.6s-16.9,37.7-37.7,37.7S162.3,183.4,162.3,162.6z M270.6,261
	c-5.4-26.2-23.1-47.5-46.4-56.5c-7.1,4.1-15.4,6.5-24.2,6.5s-17.1-2.4-24.2-6.5c-23.3,9-41.1,30.3-46.4,56.5c-0.9,4.3-3.4,14,9.5,14
	h44.5h33.1H261C274,275,271.5,265.2,270.6,261z"/>
</svg>
